<svg xmlns="http://www.w3.org/2000/svg" viewBox="0 0 128 128">
  <defs>
    <linearGradient id="bg" x1="16" y1="16" x2="112" y2="112" gradientUnits="userSpaceOnUse">
      <stop stop-color="#94A3B8"/>
      <stop offset="1" stop-color="#475569"/>
    </linearGradient>
  </defs>
  <rect width="128" height="128" rx="30" fill="url(#bg)"/>
  <path d="M70.8 28 74 40.4c3.1 1 6 2.2 8.7 4l11.1-6.5 9.8 9.8-6.5 11.1c1.7 2.7 3 5.6 4 8.7l12.4 3.2v13.9L101 87.8c-1 3.1-2.2 6-4 8.7l6.5 11.1-9.8 9.8-11.1-6.5c-2.7 1.7-5.6 3-8.7 4L70.8 127H56.9l-3.2-12.1c-3.1-1-6-2.2-8.7-4l-11.1 6.5-9.8-9.8 6.5-11.1c-1.7-2.7-3-5.6-4-8.7l-12.1-3.2V70.8l12.1-3.2c1-3.1 2.2-6 4-8.7l-6.5-11.1 9.8-9.8L45 44.5c2.7-1.7 5.6-3 8.7-4L56.9 28h13.9Z" fill="#fff" fill-opacity=".92" transform="scale(.72) translate(25 6)"/>
  <circle cx="64" cy="64" r="17" fill="#64748B"/>
</svg>
